<?xml version="1.0" standalone="no"?><!DOCTYPE svg PUBLIC "-//W3C//DTD SVG 1.1//EN" "http://www.w3.org/Graphics/SVG/1.1/DTD/svg11.dtd"><svg t="1605497579868" class="icon" viewBox="0 0 1024 1024" version="1.1" xmlns="http://www.w3.org/2000/svg" p-id="1151" xmlns:xlink="http://www.w3.org/1999/xlink" width="200" height="200"><defs><style type="text/css"></style></defs><path d="M365.2 475.4H173.5c-60.1 0-108.6-48.6-108.6-108.6V175c0-60.1 48.6-108.6 108.6-108.6h191.7c60.1 0 108.6 48.6 108.6 108.6v191.7c0.1 60.1-48.5 108.7-108.6 108.7zM173.5 130.3c-24.3 0-44.7 20.4-44.7 44.7v191.7c0 24.3 20.4 44.7 44.7 44.7h191.7c24.3 0 44.7-20.4 44.7-44.7V175c0-24.3-20.4-44.7-44.7-44.7H173.5zM850.9 475.4H659.2c-60.1 0-108.6-48.6-108.6-108.6V175c0-60.1 48.6-108.6 108.6-108.6h191.7C911 66.4 959.5 115 959.5 175v191.7c0 60.1-48.6 108.7-108.6 108.7zM659.2 130.3c-24.3 0-44.7 20.4-44.7 44.7v191.7c0 24.3 20.4 44.7 44.7 44.7h191.7c24.3 0 44.7-20.4 44.7-44.7V175c0-24.3-20.5-44.7-44.7-44.7H659.2zM365.2 961H173.5c-60.1 0-108.6-48.6-108.6-108.6V660.7c0-60.1 48.6-108.6 108.6-108.6h191.7c60.1 0 108.6 48.6 108.6 108.6v191.7c0.1 60-48.5 108.6-108.6 108.6zM173.5 615.9c-24.3 0-44.7 20.4-44.7 44.7v191.7c0 24.3 20.4 44.7 44.7 44.7h191.7c24.3 0 44.7-20.4 44.7-44.7V660.7c0-24.3-20.4-44.7-44.7-44.7H173.5zM755 961c-112.5 0-204.5-92-204.5-204.5S642.6 552 755 552c112.5 0 204.5 92 204.5 204.5S867.5 961 755 961z m0-345.1c-78 0-140.6 62.6-140.6 140.6S677.1 897.1 755 897.1c78 0 140.6-62.6 140.6-140.6S833 615.9 755 615.9z m0 0" fill="#d4237a" p-id="1152"></path><path d="M905.5 952.3l-46.7-46.7c-12.4-12.4-12.4-32.8 0-45.2 12.4-12.4 32.8-12.4 45.2 0l46.7 46.7c12.4 12.4 12.4 32.8 0 45.2-12.4 12.4-32.7 12.4-45.2 0zM115.1 107.9h303.5c6.6 0 12 5.4 12 12v303.5c0 6.6-5.4 12-12 12H115.1c-6.6 0-12-5.4-12-12V119.9c0-6.6 5.4-12 12-12zM115.1 592.8h303.5c6.6 0 12 5.4 12 12v303.5c0 6.6-5.4 12-12 12H115.1c-6.6 0-12-5.4-12-12V604.8c0-6.6 5.4-12 12-12zM602.6 107.9h303.5c6.6 0 12 5.4 12 12v303.5c0 6.6-5.4 12-12 12H602.6c-6.6 0-12-5.4-12-12V119.9c0-6.6 5.4-12 12-12z" fill="#d4237a" p-id="1153"></path><path d="M758 753.6m-165 0a165 165 0 1 0 330 0 165 165 0 1 0-330 0Z" fill="#d4237a" p-id="1154"></path></svg>