<?xml version="1.0" standalone="no"?><!DOCTYPE svg PUBLIC "-//W3C//DTD SVG 1.1//EN" "http://www.w3.org/Graphics/SVG/1.1/DTD/svg11.dtd"><svg t="1605497569990" class="icon" viewBox="0 0 1024 1024" version="1.1" xmlns="http://www.w3.org/2000/svg" p-id="962" xmlns:xlink="http://www.w3.org/1999/xlink" width="200" height="200"><defs><style type="text/css"></style></defs><path d="M511 65.1C264.8 65.1 65.1 264.8 65.1 511S264.8 956.9 511 956.9 956.9 757.3 956.9 511 757.3 65.1 511 65.1zM362.4 375.6c0 16.1-13.1 29.2-29.2 29.2h-26.5c-16.1 0-29.2-13.1-29.2-29.2v-68.9c0-16.2 13.1-29.2 29.2-29.2h26.5c16.1 0 29.2 13.1 29.2 29.2v68.9zM511 574.7c-58.6 0-106.2-45.6-106.2-101.9h212.3c0.1 56.3-47.5 101.9-106.1 101.9z m233.6-199.1c0 16.1-13.1 29.2-29.2 29.2h-26.5c-16.1 0-29.2-13.1-29.2-29.2v-68.9c0-16.2 13.1-29.2 29.2-29.2h26.5c16.1 0 29.2 13.1 29.2 29.2v68.9z" fill="#d4237a" p-id="963"></path></svg>