<?xml version="1.0" standalone="no"?><!DOCTYPE svg PUBLIC "-//W3C//DTD SVG 1.1//EN" "http://www.w3.org/Graphics/SVG/1.1/DTD/svg11.dtd"><svg t="1605494316310" class="icon" viewBox="0 0 1024 1024" version="1.1" xmlns="http://www.w3.org/2000/svg" p-id="1533" xmlns:xlink="http://www.w3.org/1999/xlink" width="200" height="200"><defs><style type="text/css"></style></defs><path d="M337.7 384.8h-81.4c-1.1 0-2 0.9-2 2v124.3c0 1.1 0.9 2 2 2h81.4c1.1 0 2-0.9 2-2V386.8c0-1.2-0.9-2-2-2z m173-320.4c-248 0-449 200.8-449 448.5s201 448.5 449 448.5 449-200.8 449-448.5-201-448.5-449-448.5z m0 832.9c-212.6 0-384.9-172.1-384.9-384.4s172.3-384.4 384.9-384.4c212.5 0 384.8 172.1 384.8 384.4S723.3 897.3 510.7 897.3z m126.1-512.5h-81.4c-1.1 0-2 0.9-2 2v124.3c0 1.1 0.9 2 2 2h81.4c1.1 0 2-0.9 2-2V386.8c0-1.2-0.8-2-2-2z" fill="#999999" p-id="1534"></path></svg>