<?xml version="1.0" standalone="no"?><!DOCTYPE svg PUBLIC "-//W3C//DTD SVG 1.1//EN" "http://www.w3.org/Graphics/SVG/1.1/DTD/svg11.dtd"><svg t="1605497624753" class="icon" viewBox="0 0 1024 1024" version="1.1" xmlns="http://www.w3.org/2000/svg" p-id="1527" xmlns:xlink="http://www.w3.org/1999/xlink" width="200" height="200"><defs><style type="text/css"></style></defs><path d="M866.6 831.6c-18.6-10.9-41.6-10.9-60.1 0-18.6 10.9-29.8 31-29.4 52.5 0.6 32.4 27.1 58.4 59.5 58.4s58.8-26 59.5-58.4c0.3-21.5-10.9-41.6-29.5-52.5zM390.9 831.6c-18.6-10.9-41.6-10.9-60.1 0-18.6 10.9-29.8 31-29.4 52.5 0.6 32.4 27.1 58.4 59.5 58.4s58.8-26 59.5-58.4c0.3-21.5-11-41.6-29.5-52.5zM932.7 291c-19.8-25.1-49.8-39.9-81.7-39.9H388c-2 0-4 0.2-6 0.5H280.8c-2.3 0-4.5 0.2-6.7 0.7l-8.4-70.7c-10.2-48.7-53.1-84.2-102-84.2h-66c-18.8 0-34.3 16.2-34.3 35.5 0 19.2 15.5 34.9 34.3 34.9h66c16.5 0 30.9 11.8 34.3 27.1l56.3 473.4c10.2 48.7 53.1 84.2 102 84.2h464c48.8 0 90.8-33.9 102.4-85.1L953 381c6.9-31.5-0.6-64.5-20.3-90zM762.4 451.5c0 19.4-15.9 35.4-35.4 35.4H456.5c-19.4 0-35.4-15.9-35.4-35.4 0-19.4 15.9-35.4 35.4-35.4h270.6c19.4 0.1 35.3 16 35.3 35.4z" fill="#d4237a" p-id="1528"></path></svg>